<svg width="24" height="24" viewBox="0 0 24 24" fill="none" xmlns="http://www.w3.org/2000/svg">
<path d="M11.9967 7.99805C9.7933 7.99805 7.99512 9.79623 7.99512 11.9997C7.99512 14.2031 9.7933 16.0014 11.9967 16.0014C14.2002 16.0014 15.9984 14.2031 15.9984 11.9997C15.9984 9.79623 14.2002 7.99805 11.9967 7.99805Z" fill="#FB0171"/>
<path d="M23.9987 11.9998C23.9987 10.3427 24.0137 8.70061 23.9207 7.04652C23.8276 5.12525 23.3892 3.42013 21.9844 2.01521C20.5764 0.607291 18.8743 0.172005 16.9531 0.0789441C15.296 -0.0141169 13.6539 0.000892913 11.9998 0.000892913C10.3427 0.000892913 8.70061 -0.0141169 7.04652 0.0789441C5.12527 0.172005 3.42013 0.610293 2.01521 2.01521C0.607292 3.42315 0.172005 5.12525 0.0789441 7.04652C-0.0141169 8.70361 0.000892913 10.3457 0.000892913 11.9998C0.000892913 13.6539 -0.0141169 15.2989 0.0789441 16.9531C0.172005 18.8743 0.610293 20.5795 2.01521 21.9844C3.42315 23.3923 5.12527 23.8276 7.04652 23.9207C8.70361 24.0137 10.3457 23.9987 11.9998 23.9987C13.6568 23.9987 15.2989 24.0137 16.9531 23.9207C18.8743 23.8276 20.5795 23.3892 21.9844 21.9844C23.3923 20.5764 23.8276 18.8743 23.9207 16.9531C24.0167 15.2989 23.9987 13.6568 23.9987 11.9998ZM11.9968 18.1568C8.58953 18.1568 5.83973 15.4071 5.83973 11.9998C5.83973 8.59253 8.58953 5.84273 11.9968 5.84273C15.404 5.84273 18.1539 8.59253 18.1539 11.9998C18.1539 15.4071 15.404 18.1568 11.9968 18.1568ZM18.406 7.02851C17.6104 7.02851 16.968 6.38609 16.968 5.59056C16.968 4.79504 17.6104 4.15263 18.406 4.15263C19.2015 4.15263 19.8439 4.79504 19.8439 5.59056C19.8409 6.38909 19.2015 7.02851 18.406 7.02851Z" fill="#FB0171"/>
</svg>
