<svg width="22" height="22" viewBox="0 0 22 22" fill="none" xmlns="http://www.w3.org/2000/svg">
<path d="M3.76596 10.9945C2.80704 10.0356 2.26833 8.73502 2.26833 7.37891C2.26833 6.02279 2.80704 4.72222 3.76596 3.76331C4.72487 2.80439 6.02545 2.26567 7.38156 2.26567C8.73767 2.26567 10.0382 2.80439 10.9972 3.76331L12.8035 5.56969C13.0209 5.75581 13.3004 5.85306 13.5864 5.84202C13.8723 5.83098 14.1435 5.71244 14.3459 5.51011C14.5482 5.30778 14.6667 5.03655 14.6778 4.75063C14.6888 4.4647 14.5915 4.18514 14.4054 3.9678L12.6047 2.15574C11.9081 1.45678 11.0773 0.906075 10.1621 0.536815C8.37751 -0.178938 6.38561 -0.178938 4.60098 0.536815C3.68702 0.908184 2.85674 1.45892 2.15915 2.1565C1.46157 2.85408 0.910837 3.68437 0.539467 4.59833C-0.179822 6.38227 -0.179822 8.37554 0.539467 10.1595C0.908727 11.0746 1.45943 11.9055 2.15839 12.6021L3.97045 14.4028C4.18691 14.5982 4.47024 14.7029 4.76177 14.6952C5.05331 14.6876 5.33072 14.568 5.53657 14.3615C5.74243 14.1549 5.86095 13.877 5.86761 13.5855C5.87427 13.2939 5.76855 13.011 5.57234 12.7952L3.76596 10.9945ZM21.4549 11.8295C21.0856 10.9144 20.5349 10.0835 19.8359 9.38694L18.0239 7.58624C17.9203 7.47238 17.7947 7.38075 17.6547 7.3169C17.5147 7.25304 17.3631 7.21831 17.2093 7.21479C17.0554 7.21128 16.9025 7.23906 16.7597 7.29646C16.6169 7.35385 16.4872 7.43966 16.3786 7.54867C16.27 7.65769 16.1846 7.78764 16.1277 7.93063C16.0708 8.07363 16.0436 8.2267 16.0477 8.38054C16.0517 8.53439 16.087 8.6858 16.1513 8.8256C16.2157 8.9654 16.3078 9.09067 16.422 9.19381L18.2284 10.9945C18.7032 11.4693 19.0798 12.033 19.3368 12.6534C19.5937 13.2737 19.726 13.9386 19.726 14.6101C19.726 15.2816 19.5937 15.9465 19.3368 16.5669C19.0798 17.1872 18.7032 17.7509 18.2284 18.2257C17.7536 18.7005 17.1899 19.0772 16.5695 19.3341C15.9491 19.5911 15.2842 19.7233 14.6128 19.7233C13.9413 19.7233 13.2764 19.5911 12.656 19.3341C12.0356 19.0772 11.472 18.7005 10.9972 18.2257L9.19078 16.4193C9.08893 16.3004 8.9636 16.2038 8.82265 16.1356C8.6817 16.0674 8.52818 16.0291 8.37172 16.0231C8.21526 16.017 8.05924 16.0434 7.91345 16.1005C7.76766 16.1576 7.63525 16.2443 7.52454 16.355C7.41382 16.4657 7.32718 16.5981 7.27007 16.7439C7.21295 16.8897 7.18659 17.0457 7.19263 17.2022C7.19867 17.3586 7.23699 17.5121 7.30519 17.6531C7.37338 17.794 7.46997 17.9194 7.5889 18.0212L9.39528 19.8333C10.0919 20.5322 10.9228 21.0829 11.8379 21.4522C13.6218 22.1715 15.6151 22.1715 17.399 21.4522C18.313 21.0808 19.1433 20.5301 19.8408 19.8325C20.5384 19.1349 21.0892 18.3046 21.4605 17.3907C22.1798 15.6067 22.1798 13.6135 21.4605 11.8295H21.4549Z" fill="#262626"/>
<path d="M14.6102 15.7438C14.829 15.7388 15.0417 15.6707 15.2227 15.5477C15.4038 15.4246 15.5454 15.2519 15.6306 15.0503C15.7158 14.8487 15.7409 14.6268 15.703 14.4112C15.6651 14.1957 15.5657 13.9956 15.4168 13.8352L8.18562 6.57561C8.08007 6.47006 7.95475 6.38633 7.81684 6.3292C7.67893 6.27208 7.53111 6.24268 7.38184 6.24268C7.23256 6.24268 7.08475 6.27208 6.94683 6.3292C6.80892 6.38633 6.68361 6.47006 6.57805 6.57561C6.4725 6.68117 6.38877 6.80648 6.33164 6.94439C6.27452 7.08231 6.24512 7.23012 6.24512 7.3794C6.24512 7.52867 6.27452 7.67649 6.33164 7.8144C6.38877 7.95231 6.4725 8.07762 6.57805 8.18318L13.8377 15.4144C14.0436 15.6188 14.3201 15.7367 14.6102 15.7438Z" fill="#262626"/>
</svg>
