<svg width="24" height="24" viewBox="0 0 24 24" fill="none" xmlns="http://www.w3.org/2000/svg">
<g clip-path="url(#clip0_1218_7561)">
<path d="M1.21849e-06 11.9991C-0.0010951 14.4324 0.737628 16.8087 2.11819 18.8125C3.49873 20.8164 5.45588 22.3532 7.73 23.2191C7.56193 22.0343 7.57205 20.8309 7.76 19.6491L9.16 13.7091C9.16 13.7091 8.8 12.9991 8.8 11.9391C8.8 10.2791 9.76 9.03905 10.96 9.03905C11.98 9.03905 12.47 9.80905 12.47 10.7191C12.47 11.7491 11.82 13.2791 11.48 14.6991C11.2 15.8891 12.08 16.8591 13.25 16.8591C15.37 16.8591 17.01 14.6191 17.01 11.3891C17.01 8.52905 14.95 6.52905 12.01 6.52905C11.3119 6.49932 10.6151 6.61139 9.96156 6.85848C9.30801 7.10559 8.71135 7.48259 8.20757 7.96673C7.70381 8.45087 7.3034 9.03209 7.03053 9.67531C6.75768 10.3185 6.61801 11.0104 6.62 11.7091C6.62 12.7391 7.02 13.8391 7.52 14.4391C7.6 14.5524 7.62667 14.6657 7.6 14.7791L7.26 16.1391C7.22 16.3457 7.08667 16.3991 6.86 16.2991C5.37 15.5991 4.44 13.4191 4.44 11.6691C4.44 7.89905 7.18 4.43905 12.34 4.43905C16.48 4.43905 19.7 7.38905 19.7 11.3391C19.7 15.4591 17.1 18.7691 13.5 18.7691C12.29 18.7691 11.15 18.1391 10.76 17.3991L10.02 20.2391C9.6438 21.3776 9.12287 22.4632 8.47 23.4691C10.8844 24.2121 13.4716 24.1744 15.8633 23.3611C18.2549 22.5479 20.3289 21.0005 21.7899 18.9397C23.2507 16.8789 24.024 14.4096 23.9995 11.8835C23.9749 9.35753 23.1539 6.90368 21.6532 4.87157C20.1527 2.83945 18.0491 1.33273 15.642 0.566038C13.2351 -0.200652 10.6475 -0.188199 8.24807 0.601626C5.84859 1.39145 3.75955 2.91836 2.27857 4.96481C0.797589 7.01128 0.000201273 9.47292 1.21849e-06 11.9991Z" fill="#E60023"/>
</g>
<defs>
<clipPath id="clip0_1218_7561">
<rect width="24" height="24" fill="white"/>
</clipPath>
</defs>
</svg>
