<svg width="24" height="24" viewBox="0 0 24 24" fill="none" xmlns="http://www.w3.org/2000/svg">
<g clip-path="url(#clip0_1218_7566)">
<path d="M12.2471 1H12.2529C18.5942 1 23.75 6.15867 23.75 12.5C23.75 18.8413 18.5932 24 12.2529 24C9.91459 24 7.74488 23.3033 5.92788 22.1005L1.50706 23.5132L2.93984 19.2399C1.51338 17.2825 0.746447 14.922 0.750012 12.5C0.750012 6.15867 5.90684 1 12.2471 1ZM8.95721 7.32121C8.73768 6.79692 8.57093 6.77679 8.23846 6.76345C8.11208 6.75517 7.98558 6.75069 7.85896 6.75C7.42576 6.75 6.97346 6.8765 6.6993 7.15538C6.36868 7.49371 5.54172 8.2833 5.54172 9.90583C5.54172 11.5263 6.72713 13.0942 6.88618 13.3136C7.05293 13.5321 9.19768 16.9074 12.526 18.2825C15.1298 19.3588 15.9022 19.2591 16.4955 19.1326C17.3608 18.9467 18.4456 18.3084 18.7188 17.539C18.9919 16.7674 18.9919 16.1101 18.9123 15.9701C18.8318 15.8312 18.6124 15.7516 18.2798 15.5849C17.9463 15.419 16.3287 14.6218 16.022 14.5154C15.7221 14.4033 15.4364 14.4426 15.2103 14.7617C14.8902 15.2063 14.5778 15.6587 14.3238 15.9308C14.1245 16.1435 13.7977 16.1705 13.5256 16.0573C13.1594 15.904 12.1341 15.5455 10.8681 14.4225C9.88963 13.5522 9.22355 12.4693 9.03093 12.1444C8.83738 11.812 9.0108 11.6193 9.16421 11.44C9.32993 11.2341 9.49001 11.0884 9.65676 10.8958C9.82351 10.7031 9.91551 10.6034 10.0228 10.3773C10.136 10.1578 10.0564 9.93171 9.97588 9.76587C9.8963 9.60005 9.23034 7.97763 8.95721 7.32121Z" fill="#30D14E"/>
</g>
<defs>
<clipPath id="clip0_1218_7566">
<rect width="24" height="24" fill="white"/>
</clipPath>
</defs>
</svg>
