<svg width="14" height="15" viewBox="0 0 14 15" fill="none" xmlns="http://www.w3.org/2000/svg">
<path d="M0 4C0 3.51675 0.391751 3.125 0.875 3.125H13.125C13.6082 3.125 14 3.51675 14 4C14 4.48325 13.6082 4.875 13.125 4.875H0.875C0.391751 4.875 0 4.48325 0 4Z" fill="#262626"/>
<path fill-rule="evenodd" clip-rule="evenodd" d="M1.75 11.875V4.875H3.5V11.875C3.5 12.3582 3.89175 12.75 4.375 12.75H9.625C10.1082 12.75 10.5 12.3582 10.5 11.875V4.875H12.25V11.875C12.25 13.3247 11.0747 14.5 9.625 14.5H4.375C2.92525 14.5 1.75 13.3247 1.75 11.875Z" fill="#262626"/>
<path d="M4.375 1.375C4.375 0.891751 4.76675 0.5 5.25 0.5H8.75C9.23325 0.5 9.625 0.891751 9.625 1.375C9.625 1.85825 9.23325 2.25 8.75 2.25H5.25C4.76675 2.25 4.375 1.85825 4.375 1.375Z" fill="#262626"/>
<path d="M6.125 10.125C6.125 9.64175 6.51675 9.25 7 9.25C7.48325 9.25 7.875 9.64175 7.875 10.125V12.75C7.875 13.2332 7.48325 13.625 7 13.625C6.51675 13.625 6.125 13.2332 6.125 12.75V10.125Z" fill="#262626"/>
</svg>
