<svg width="10" height="11" viewBox="0 0 10 11" fill="none" xmlns="http://www.w3.org/2000/svg">
<path d="M0.384621 1.65385C0.172204 1.44143 0.172204 1.09703 0.384621 0.884616C0.597038 0.672198 0.941434 0.672198 1.15385 0.884616L9.61538 9.34615C9.8278 9.55857 9.8278 9.90297 9.61539 10.1154C9.40297 10.3278 9.05857 10.3278 8.84615 10.1154L0.384621 1.65385Z" fill="#999999"/>
<path d="M9.61538 1.65385C9.8278 1.44143 9.8278 1.09703 9.61538 0.884616C9.40296 0.672198 9.05857 0.672198 8.84615 0.884616L0.384615 9.34615C0.172198 9.55857 0.172198 9.90297 0.384615 10.1154C0.597032 10.3278 0.941428 10.3278 1.15385 10.1154L9.61538 1.65385Z" fill="#999999"/>
</svg>
